<svg width="3356" height="512" viewBox="0 0 3356 512" fill="none" xmlns="http://www.w3.org/2000/svg">
<g clip-path="url(#clip0_66_24)">
<mask id="mask0_66_24" style="mask-type:luminance" maskUnits="userSpaceOnUse" x="0" y="0" width="620" height="440">
<path d="M619.313 0H0V439.571H619.313V0Z" fill="white"/>
</mask>
<g mask="url(#mask0_66_24)">
<path d="M199.976 0H471.978L272.002 297.007H0L199.976 0Z" fill="#783CB2"/>
<path d="M211.887 324.532L134.432 439.571H419.337L619.313 142.564H409.035L286.515 324.532H211.887Z" fill="#5D2F91"/>
</g>
<path d="M736.682 407.826V56.9236H800.321V354.54H955.032V407.826H736.682Z" fill="#181C25"/>
<path d="M1064.01 413.138C1047.32 413.138 1032.28 410.168 1018.9 404.229C1005.64 398.174 995.117 389.265 987.341 377.499C979.679 365.734 975.851 351.227 975.851 333.979C975.851 319.13 978.593 306.851 984.082 297.141C989.571 287.432 997.062 279.665 1006.56 273.839C1016.04 268.014 1026.74 263.616 1038.63 260.646C1050.63 257.562 1063.04 255.334 1075.85 253.964C1091.29 252.365 1103.81 250.937 1113.41 249.68C1123.02 248.31 1129.99 246.254 1134.34 243.512C1138.8 240.657 1141.03 236.259 1141.03 230.319V229.291C1141.03 216.383 1137.2 206.388 1129.54 199.307C1121.88 192.225 1110.84 188.683 1096.43 188.683C1081.22 188.683 1069.16 191.996 1060.24 198.621C1051.44 205.247 1045.49 213.071 1042.4 222.095L984.429 213.87C989.002 197.879 996.55 184.515 1007.07 173.777C1017.59 162.926 1030.45 154.816 1045.66 149.447C1060.87 143.964 1077.68 141.223 1096.09 141.223C1108.78 141.223 1121.42 142.707 1134 145.678C1146.57 148.647 1158.06 153.559 1168.47 160.412C1178.88 167.152 1187.23 176.347 1193.51 187.998C1199.92 199.649 1203.12 214.213 1203.12 231.69V407.826H1143.43V371.674H1141.37C1137.6 378.984 1132.28 385.838 1125.42 392.235C1118.67 398.517 1110.15 403.6 1099.86 407.484C1089.69 411.253 1077.74 413.138 1064.01 413.138ZM1080.14 367.562C1092.6 367.562 1103.41 365.106 1112.55 360.194C1121.7 355.168 1128.74 348.543 1133.65 340.319C1138.69 332.095 1141.2 323.128 1141.2 313.419V282.406C1139.25 284.005 1135.94 285.49 1131.25 286.861C1126.68 288.232 1121.53 289.431 1115.81 290.459C1110.1 291.487 1104.44 292.401 1098.83 293.2C1093.23 294 1088.37 294.686 1084.26 295.257C1074.99 296.513 1066.7 298.569 1059.38 301.425C1052.07 304.28 1046.29 308.278 1042.06 313.419C1037.83 318.445 1035.71 324.956 1035.71 332.951C1035.71 344.374 1039.89 352.998 1048.23 358.823C1056.58 364.649 1067.21 367.562 1080.14 367.562Z" fill="#181C25"/>
<path d="M1308.33 253.621V407.826H1246.24V144.649H1305.58V189.369H1308.67C1314.73 174.634 1324.39 162.926 1337.66 154.245C1351.03 145.563 1367.56 141.223 1387.23 141.223C1405.41 141.223 1421.25 145.106 1434.74 152.874C1448.35 160.641 1458.87 171.892 1466.3 186.627C1473.85 201.363 1477.56 219.239 1477.45 240.257V407.826H1415.36V249.851C1415.36 232.261 1410.78 218.497 1401.64 208.559C1392.6 198.621 1380.08 193.653 1364.07 193.653C1353.21 193.653 1343.55 196.051 1335.09 200.849C1326.73 205.532 1320.16 212.328 1315.36 221.238C1310.67 230.147 1308.33 240.942 1308.33 253.621Z" fill="#181C25"/>
<path d="M1619.02 412.452C1598.32 412.452 1579.8 407.141 1563.45 396.518C1547.09 385.895 1534.17 370.475 1524.68 350.256C1515.19 330.039 1510.44 305.48 1510.44 276.581C1510.44 247.339 1515.25 222.666 1524.85 202.562C1534.57 182.344 1547.67 167.095 1564.13 156.814C1580.6 146.42 1598.95 141.223 1619.19 141.223C1634.63 141.223 1647.32 143.85 1657.27 149.104C1667.22 154.245 1675.11 160.47 1680.94 167.78C1686.77 174.977 1691.29 181.773 1694.49 188.17H1697.06V56.9236H1759.33V407.826H1698.26V366.362H1694.49C1691.29 372.759 1686.66 379.555 1680.6 386.752C1674.54 393.834 1666.53 399.888 1656.58 404.914C1646.64 409.94 1634.12 412.452 1619.02 412.452ZM1636.35 361.565C1649.49 361.565 1660.7 358.024 1669.96 350.942C1679.22 343.745 1686.26 333.751 1691.06 320.957C1695.86 308.164 1698.26 293.258 1698.26 276.238C1698.26 259.218 1695.86 244.426 1691.06 231.861C1686.37 219.296 1679.39 209.53 1670.13 202.562C1660.99 195.594 1649.72 192.11 1636.35 192.11C1622.51 192.11 1610.96 195.709 1601.69 202.904C1592.43 210.101 1585.46 220.039 1580.77 232.718C1576.08 245.397 1573.74 259.904 1573.74 276.238C1573.74 292.687 1576.08 307.364 1580.77 320.272C1585.57 333.065 1592.6 343.174 1601.86 350.599C1611.24 357.91 1622.73 361.565 1636.35 361.565Z" fill="#181C25"/>
<path d="M1806.17 407.826V144.649H1868.26V407.826H1806.17ZM1837.39 107.298C1827.55 107.298 1819.09 104.042 1812 97.5309C1804.91 90.9062 1801.37 82.9673 1801.37 73.7149C1801.37 64.3482 1804.91 56.4097 1812 49.8988C1819.09 43.2737 1827.55 39.9611 1837.39 39.9611C1847.34 39.9611 1855.8 43.2737 1862.77 49.8988C1869.87 56.4097 1873.41 64.3482 1873.41 73.7149C1873.41 82.9673 1869.87 90.9062 1862.77 97.5309C1855.8 104.042 1847.34 107.298 1837.39 107.298Z" fill="#181C25"/>
<path d="M1974.89 253.621V407.826H1912.79V144.649H1972.14V189.369H1975.23C1981.29 174.634 1990.95 162.926 2004.21 154.245C2017.59 145.563 2034.12 141.223 2053.79 141.223C2071.97 141.223 2087.81 145.106 2101.3 152.874C2114.91 160.641 2125.43 171.892 2132.86 186.627C2140.41 201.363 2144.12 219.239 2144.01 240.257V407.826H2081.91V249.851C2081.91 232.261 2077.34 218.497 2068.19 208.559C2059.16 198.621 2046.64 193.653 2030.63 193.653C2019.77 193.653 2010.1 196.051 2001.64 200.849C1993.29 205.532 1986.72 212.328 1981.92 221.238C1977.23 230.147 1974.89 240.942 1974.89 253.621Z" fill="#181C25"/>
<path d="M2302.39 512.001C2280.09 512.001 2260.94 508.974 2244.93 502.92C2228.92 496.98 2216.05 488.984 2206.33 478.932C2196.62 468.881 2189.87 457.743 2186.09 445.521L2242.01 431.985C2244.53 437.125 2248.18 442.209 2252.99 447.234C2257.79 452.375 2264.25 456.601 2272.37 459.914C2280.6 463.34 2290.95 465.054 2303.42 465.054C2321.03 465.054 2335.61 460.77 2347.15 452.204C2358.7 443.75 2364.48 429.815 2364.48 410.396V360.537H2361.39C2358.19 366.933 2353.5 373.502 2347.33 380.241C2341.26 386.98 2333.2 392.635 2323.14 397.203C2313.19 401.773 2300.67 404.057 2285.58 404.057C2265.34 404.057 2246.98 399.317 2230.52 389.836C2214.16 380.241 2201.13 365.962 2191.41 347.001C2181.8 327.925 2177 304.052 2177 275.381C2177 246.482 2181.8 222.095 2191.41 202.22C2201.13 182.23 2214.22 167.095 2230.69 156.814C2247.15 146.42 2265.51 141.223 2285.75 141.223C2301.19 141.223 2313.88 143.85 2323.83 149.104C2333.89 154.245 2341.9 160.47 2347.84 167.78C2353.78 174.977 2358.31 181.773 2361.39 188.17H2364.82V144.649H2426.06V412.11C2426.06 434.612 2420.68 453.231 2409.93 467.966C2399.18 482.702 2384.49 493.724 2365.85 501.035C2347.21 508.345 2326.05 512.001 2302.39 512.001ZM2302.9 355.397C2316.05 355.397 2327.26 352.198 2336.52 345.801C2345.78 339.405 2352.82 330.21 2357.62 318.216C2362.42 306.222 2364.82 291.83 2364.82 275.038C2364.82 258.476 2362.42 243.969 2357.62 231.518C2352.93 219.068 2345.95 209.415 2336.69 202.562C2327.55 195.594 2316.28 192.11 2302.9 192.11C2289.06 192.11 2277.52 195.709 2268.25 202.904C2258.99 210.101 2252.02 219.981 2247.33 232.546C2242.64 244.997 2240.29 259.161 2240.29 275.038C2240.29 291.144 2242.64 305.252 2247.33 317.359C2252.13 329.353 2259.16 338.72 2268.42 345.459C2277.8 352.084 2289.29 355.397 2302.9 355.397Z" fill="#181C25"/>
<path d="M2573.6 407.826V56.9236H2705.33C2732.32 56.9236 2754.96 61.9497 2773.26 72.0014C2791.67 82.0537 2805.56 95.8748 2814.94 113.465C2824.43 130.942 2829.18 150.818 2829.18 173.092C2829.18 195.594 2824.43 215.584 2814.94 233.06C2805.45 250.537 2791.44 264.301 2772.91 274.353C2754.39 284.291 2731.58 289.26 2704.48 289.26H2617.17V237.001H2695.9C2711.68 237.001 2724.61 234.26 2734.67 228.777C2744.73 223.294 2752.16 215.755 2756.97 206.16C2761.88 196.565 2764.34 185.543 2764.34 173.092C2764.34 160.641 2761.88 149.675 2756.97 140.195C2752.16 130.714 2744.67 123.346 2734.5 118.092C2724.43 112.723 2711.45 110.039 2695.56 110.039H2637.24V407.826H2573.6Z" fill="#181C25"/>
<path d="M2933.49 413.138C2916.78 413.138 2901.75 410.168 2888.37 404.229C2875.11 398.174 2864.58 389.265 2856.81 377.499C2849.15 365.734 2845.32 351.227 2845.32 333.979C2845.32 319.13 2848.06 306.851 2853.55 297.141C2859.04 287.432 2866.53 279.665 2876.02 273.839C2885.51 268.014 2896.21 263.616 2908.1 260.646C2920.1 257.562 2932.51 255.334 2945.32 253.964C2960.75 252.365 2973.27 250.937 2982.88 249.68C2992.49 248.31 2999.46 246.254 3003.81 243.512C3008.27 240.657 3010.5 236.259 3010.5 230.319V229.291C3010.5 216.383 3006.67 206.388 2999.01 199.307C2991.35 192.225 2980.31 188.683 2965.9 188.683C2950.69 188.683 2938.63 191.996 2929.71 198.621C2920.9 205.247 2914.96 213.071 2911.87 222.095L2853.9 213.87C2858.47 197.879 2866.02 184.515 2876.54 173.777C2887.06 162.926 2899.92 154.816 2915.13 149.447C2930.34 143.964 2947.15 141.223 2965.55 141.223C2978.25 141.223 2990.88 142.707 3003.47 145.678C3016.04 148.647 3027.53 153.559 3037.94 160.412C3048.35 167.152 3056.7 176.347 3062.98 187.998C3069.39 199.649 3072.59 214.213 3072.59 231.69V407.826H3012.9V371.674H3010.84C3007.07 378.984 3001.75 385.838 2994.89 392.235C2988.14 398.517 2979.62 403.6 2969.33 407.484C2959.16 411.253 2947.21 413.138 2933.49 413.138ZM2949.61 367.562C2962.07 367.562 2972.88 365.106 2982.02 360.194C2991.17 355.168 2998.2 348.543 3003.12 340.319C3008.15 332.095 3010.67 323.128 3010.67 313.419V282.406C3008.72 284.005 3005.41 285.49 3000.72 286.861C2996.15 288.232 2991 289.431 2985.28 290.459C2979.56 291.487 2973.91 292.401 2968.3 293.2C2962.7 294 2957.84 294.686 2953.72 295.257C2944.46 296.513 2936.17 298.569 2928.85 301.425C2921.53 304.28 2915.76 308.278 2911.53 313.419C2907.3 318.445 2905.18 324.956 2905.18 332.951C2905.18 344.374 2909.36 352.998 2917.7 358.823C2926.05 364.649 2936.68 367.562 2949.61 367.562Z" fill="#181C25"/>
<path d="M3213.47 412.452C3192.77 412.452 3174.25 407.141 3157.9 396.518C3141.55 385.895 3128.62 370.475 3119.13 350.256C3109.64 330.039 3104.9 305.48 3104.9 276.581C3104.9 247.339 3109.7 222.666 3119.31 202.562C3129.03 182.344 3142.12 167.095 3158.59 156.814C3175.05 146.42 3193.4 141.223 3213.64 141.223C3229.08 141.223 3241.78 143.85 3251.73 149.104C3261.67 154.245 3269.56 160.47 3275.39 167.78C3281.22 174.977 3285.74 181.773 3288.94 188.17H3291.51V56.9236H3353.78V407.826H3292.72V366.362H3288.94C3285.74 372.759 3281.11 379.555 3275.05 386.752C3268.99 393.834 3260.99 399.888 3251.04 404.914C3241.09 409.94 3228.57 412.452 3213.47 412.452ZM3230.8 361.565C3243.95 361.565 3255.15 358.024 3264.42 350.942C3273.68 343.745 3280.71 333.751 3285.51 320.957C3290.31 308.164 3292.72 293.258 3292.72 276.238C3292.72 259.218 3290.31 244.426 3285.51 231.861C3280.83 219.296 3273.85 209.53 3264.59 202.562C3255.44 195.594 3244.18 192.11 3230.8 192.11C3216.96 192.11 3205.41 195.709 3196.15 202.904C3186.89 210.101 3179.91 220.039 3175.23 232.718C3170.53 245.397 3168.19 259.904 3168.19 276.238C3168.19 292.687 3170.53 307.364 3175.23 320.272C3180.03 333.065 3187.06 343.174 3196.32 350.599C3205.7 357.91 3217.19 361.565 3230.8 361.565Z" fill="#181C25"/>
</g>
<defs>
<clipPath id="clip0_66_24">
<rect width="3356" height="512" fill="white"/>
</clipPath>
</defs>
</svg>
